<?xml version="1.0" standalone="no"?>
<svg viewBox="0 0 200 200" xmlns="http://www.w3.org/2000/svg">
  <path fill="#F2F4F8" d="M30.6,-57.7C38.8,-48.2,44.2,-38.4,47.1,-28.7C50,-19.1,50.5,-9.5,56.1,3.2C61.6,15.9,72.2,31.9,71.1,44.7C70,57.6,57.3,67.4,43.5,70C29.7,72.5,14.9,67.9,1.3,65.7C-12.4,63.5,-24.7,63.9,-35.9,59.8C-47.1,55.7,-57.1,47.2,-61.9,36.5C-66.8,25.8,-66.5,12.9,-66.8,-0.2C-67.1,-13.3,-68.1,-26.6,-63.4,-37.6C-58.7,-48.6,-48.5,-57.4,-37,-65.1C-25.5,-72.8,-12.7,-79.4,-0.8,-78C11.1,-76.6,22.3,-67.3,30.6,-57.7Z" transform="translate(100 100)" />
</svg>
